<svg xmlns="http://www.w3.org/2000/svg" xmlns:xlink="http://www.w3.org/1999/xlink" width="500" zoomAndPan="magnify" viewBox="0 0 375 374.999991" height="500" preserveAspectRatio="xMidYMid meet" version="1.0"><defs><clipPath id="id1"><path d="M 113.621094 80.824219 L 281.621094 80.824219 L 281.621094 272.074219 L 113.621094 272.074219 Z M 113.621094 80.824219 " clip-rule="nonzero"/></clipPath></defs><g clip-path="url(#id1)"><path fill="rgb(32.159424%, 44.309998%, 100%)" d="M 113.792969 105.847656 C 112.484375 140.636719 118.722656 171.820312 132.5 199.40625 C 133.363281 201.203125 134.253906 202.992188 135.175781 204.757812 C 142.003906 217.890625 150.3125 229.949219 159.832031 240.640625 C 169.347656 251.328125 180.085938 260.65625 191.78125 268.324219 L 197.21875 271.890625 C 197.5 272.082031 197.878906 272.097656 198.183594 271.898438 L 203.632812 268.324219 C 215.328125 260.65625 226.066406 251.328125 235.585938 240.640625 C 245.101562 229.949219 253.410156 217.890625 260.242188 204.757812 C 267.234375 191.316406 272.578125 176.898438 276.175781 161.914062 C 279.773438 146.933594 281.621094 131.410156 281.621094 115.753906 L 281.621094 105.84375 C 281.621094 105.363281 281.230469 104.972656 280.75 104.972656 L 270.824219 104.972656 C 259.015625 104.972656 247.308594 103.210938 236.015625 99.78125 C 224.710938 96.347656 213.8125 91.25 203.632812 84.574219 L 198.195312 81.007812 C 197.914062 80.816406 197.53125 80.800781 197.226562 81 L 191.777344 84.574219 C 181.601562 91.25 170.699219 96.347656 159.394531 99.78125 C 148.101562 103.210938 136.394531 104.972656 124.585938 104.972656 L 114.660156 104.972656 C 114.179688 104.972656 113.789062 105.363281 113.789062 105.84375 Z M 179.964844 203.453125 C 179.824219 201.03125 183.722656 179.308594 184.632812 174.058594 C 184.792969 173.132812 185.433594 169.960938 185.367188 169.289062 C 185.230469 167.910156 176.800781 159.523438 183.675781 147.695312 C 184.113281 146.941406 184.050781 147.023438 184.25 146.867188 C 187.417969 142.34375 192.644531 139.367188 198.578125 139.296875 L 198.578125 130.542969 L 198.574219 130.542969 C 198.574219 130.375 198.527344 130.203125 198.421875 130.054688 C 198.152344 129.65625 197.609375 129.554688 197.210938 129.824219 C 197.183594 129.84375 188.277344 136.316406 147.199219 125.699219 C 156.15625 124.675781 163.832031 122.707031 171.277344 119.828125 C 179.875 116.5 188.140625 111.96875 197.703125 106.28125 C 207.335938 111.980469 217.464844 116.515625 227.917969 119.839844 C 238.273438 123.132812 248.929688 125.234375 259.71875 126.089844 C 258.285156 150.472656 251.800781 173.851562 241.171875 194.453125 C 230.707031 214.738281 216.222656 232.332031 198.574219 245.542969 L 198.574219 203.472656 L 179.960938 203.453125 Z M 179.964844 203.453125 " fill-opacity="1" fill-rule="evenodd"/></g><path fill="rgb(0%, 0%, 0%)" d="M 198.578125 139.296875 L 198.578125 203.476562 L 217.191406 203.496094 C 217.390625 200.03125 213.3125 180.03125 212.445312 173.710938 C 212.304688 172.664062 211.628906 169.808594 211.804688 169.035156 C 214.738281 165.875 216.535156 161.644531 216.535156 156.996094 C 216.535156 147.214844 208.59375 139.289062 198.796875 139.289062 C 198.726562 139.289062 198.652344 139.289062 198.578125 139.292969 Z M 198.578125 139.296875 " fill-opacity="1" fill-rule="evenodd"/></svg>